<svg xmlns="http://www.w3.org/2000/svg" width="410.24631mm" height="114.9227mm" viewBox="0 0 410.24631 114.9227"><g style="fill:#fc3b20;fill-opacity:1;stroke-width:.735173"><path d="M94.065 164.726H98.2v15.297h-4.136zm2.051-7.588c1.43 0 2.55 1.15 2.55 2.581 0 1.367-1.12 2.52-2.55 2.52-1.4 0-2.548-1.153-2.548-2.52 0-1.43 1.148-2.58 2.548-2.58" style="fill:#fc3b20;fill-opacity:1;fill-rule:nonzero;stroke:none;stroke-width:.259353" transform="matrix(1.36022 0 0 1.36022 -10.122 -132.588)"/><g style="fill:#fc3b20;fill-opacity:1;stroke-width:.101892"><path d="M0 0h-1.625v6.01h1.576v-.745c.367.623 1.087.904 1.735.904 1.49 0 2.174-1.062 2.174-2.382V0H2.235v3.506c0 .672-.329 1.197-1.111 1.197C.415 4.703 0 4.153 0 3.457Z" style="fill:#fc3b20;fill-opacity:1;fill-rule:nonzero;stroke:none;stroke-width:.101892" transform="matrix(3.46226 0 0 -3.46226 134.66 112.285)"/></g><g style="fill:#fc3b20;fill-opacity:1;stroke-width:.101892"><path d="M0 0h1.21v-1.442H0v-2.516c0-.525.244-.696.709-.696.195 0 .415.024.501.048v-1.343c-.147-.061-.44-.147-.917-.147-1.173 0-1.906.697-1.906 1.857v2.797H-2.7V0h.306c.635 0 .928.415.928.953v.843H0Z" style="fill:#fc3b20;fill-opacity:1;fill-rule:nonzero;stroke:none;stroke-width:.101892" transform="matrix(3.46226 0 0 -3.46226 160.25 91.476)"/></g><path d="M130.79 157.512h4.135v22.511h-4.136z" style="fill:#fc3b20;fill-opacity:1;fill-rule:nonzero;stroke:none;stroke-width:.259353" transform="matrix(1.36022 0 0 1.36022 -10.122 -132.588)"/><g style="fill:#fc3b20;fill-opacity:1;stroke-width:.101892"><path d="M0 0c.623 0 1.124-.501 1.124-1.112a1.118 1.118 0 0 0-2.236 0C-1.112-.501-.611 0 0 0" style="fill:#fc3b20;fill-opacity:1;fill-rule:nonzero;stroke:none;stroke-width:.101892" transform="matrix(3.46226 0 0 -3.46226 182.288 104.884)"/></g><g style="fill:#fc3b20;fill-opacity:1;stroke-width:.101892"><path d="M0 0a1.01 1.01 0 0 0 1.002-1.014A.996.996 0 0 0 0-2.003a.995.995 0 0 0-1.002.989C-1.002-.452-.55 0 0 0m-3.213-4.385v-4.618H-4.85v4.618h-1.002v1.392h1.002v.684c0 1.356.855 2.235 2.187 2.235.342 0 .672-.061.806-.121v-1.369a1.8 1.8 0 0 1-.513.061c-.354 0-.843-.158-.843-.83v-.66H.806v-6.01H-.806v4.618z" style="fill:#fc3b20;fill-opacity:1;fill-rule:nonzero;stroke:none;stroke-width:.101892" transform="matrix(3.46226 0 0 -3.46226 209.315 81.113)"/></g><path d="M167.516 157.512h4.136v22.511h-4.136z" style="fill:#fc3b20;fill-opacity:1;fill-rule:nonzero;stroke:none;stroke-width:.259353" transform="matrix(1.36022 0 0 1.36022 -10.122 -132.588)"/><g style="fill:#fc3b20;fill-opacity:1;stroke-width:.101892"><path d="M0 0v6.01h1.551v-.733c.33.587 1.1.905 1.759.905.819 0 1.479-.355 1.784-1.002C5.57 5.913 6.206 6.182 7 6.182c1.111 0 2.174-.673 2.174-2.285V0H7.599v3.567c0 .648-.318 1.136-1.064 1.136-.696 0-1.111-.537-1.111-1.185V0H3.811v3.567c0 .648-.329 1.136-1.062 1.136-.709 0-1.124-.525-1.124-1.185V0Z" style="fill:#fc3b20;fill-opacity:1;fill-rule:nonzero;stroke:none;stroke-width:.101892" transform="matrix(3.46226 0 0 -3.46226 228.943 112.285)"/></g><g style="fill:#fc3b20;fill-opacity:1;stroke-width:.101892"><path d="M0 0v-.66h1.356v-1.392H0V-6.67h-1.637v4.618h-1.002V-.66h1.002v.684c0 1.356.855 2.236 2.186 2.236.342 0 .672-.062.807-.122V.77C1.27.794 1.112.83.843.83.476.83 0 .672 0 0" style="fill:#fc3b20;fill-opacity:1;fill-rule:nonzero;stroke:none;stroke-width:.101892" transform="matrix(3.46226 0 0 -3.46226 282.747 89.192)"/></g><g style="fill:#fc3b20;fill-opacity:1;stroke-width:.101892"><path d="M0 0c-.024.599-.415 1.185-1.344 1.185-.843 0-1.307-.635-1.343-1.185Zm1.515-1.966C1.21-3.005.257-3.872-1.221-3.872c-1.65 0-3.103 1.185-3.103 3.213 0 1.918 1.417 3.163 2.956 3.163 1.857 0 2.969-1.184 2.969-3.115 0-.232-.025-.476-.025-.501h-4.3c.037-.793.709-1.368 1.515-1.368.757 0 1.172.379 1.368.916z" style="fill:#fc3b20;fill-opacity:1;fill-rule:nonzero;stroke:none;stroke-width:.101892" transform="matrix(3.46226 0 0 -3.46226 303.598 99.512)"/></g><g style="fill:#fc3b20;fill-opacity:1;stroke-width:.101892"><path d="M0 0c.037-.477.391-.917 1.1-.917.537 0 .794.281.794.599 0 .269-.184.489-.648.587L.452.452c-1.16.256-1.686.953-1.686 1.796 0 1.075.953 1.966 2.248 1.966 1.71 0 2.285-1.087 2.358-1.734l-1.356-.306c-.049.355-.306.806-.99.806-.427 0-.769-.256-.769-.598 0-.293.219-.477.549-.537l.855-.184C2.846 1.417 3.445.696 3.445-.184c0-.977-.757-1.978-2.333-1.978-1.808 0-2.431 1.172-2.504 1.856z" style="fill:#fc3b20;fill-opacity:1;fill-rule:nonzero;stroke:none;stroke-width:.101892" transform="matrix(3.46226 0 0 -3.46226 316.205 105.432)"/></g><g style="fill:#fc3b20;fill-opacity:1;stroke-width:.101892"><path d="M0 0h1.209v-1.442H0v-2.516c0-.525.244-.696.708-.696.196 0 .416.024.501.048v-1.343c-.146-.061-.44-.147-.916-.147-1.173 0-1.906.697-1.906 1.857v2.797H-2.7V0h.306c.635 0 .928.415.928.953v.843H0Z" style="fill:#fc3b20;fill-opacity:1;fill-rule:nonzero;stroke:none;stroke-width:.101892" transform="matrix(3.46226 0 0 -3.46226 339.173 91.476)"/></g><path d="M263.074 164.726h4.136v15.297h-4.136zm2.054-7.588c1.428 0 2.548 1.15 2.548 2.581 0 1.367-1.12 2.52-2.548 2.52-1.4 0-2.55-1.153-2.55-2.52 0-1.43 1.15-2.58 2.55-2.58" style="fill:#fc3b20;fill-opacity:1;fill-rule:nonzero;stroke:none;stroke-width:.259353" transform="matrix(1.36022 0 0 1.36022 -10.122 -132.588)"/><g style="fill:#fc3b20;fill-opacity:1;stroke-width:.101892"><path d="M0 0h-1.625L-4.08 6.01h1.783l1.491-4.031L.623 6.01h1.71z" style="fill:#fc3b20;fill-opacity:1;fill-rule:nonzero;stroke:none;stroke-width:.101892" transform="matrix(3.46226 0 0 -3.46226 370.473 112.285)"/></g><g style="fill:#fc3b20;fill-opacity:1;stroke-width:.101892"><path d="M0 0v.269L-1.356.061c-.415-.061-.745-.293-.745-.757 0-.354.256-.696.782-.696C-.635-1.392 0-1.063 0 0m-1.93 1.026 1.478.22c.342.049.452.22.452.428 0 .427-.33.782-1.014.782-.709 0-1.099-.453-1.148-.978l-1.442.306c.098.94.965 1.979 2.578 1.979 1.906 0 2.614-1.075 2.614-2.285v-2.956c0-.318.037-.745.073-.953H.171a4 4 0 0 0-.061.721c-.305-.477-.88-.892-1.771-.892-1.283 0-2.065.868-2.065 1.808 0 1.075.794 1.674 1.796 1.82" style="fill:#fc3b20;fill-opacity:1;fill-rule:nonzero;stroke:none;stroke-width:.101892" transform="matrix(3.46226 0 0 -3.46226 393.102 103.869)"/></g><path d="M304.34 157.512h4.136v22.511h-4.137z" style="fill:#fc3b20;fill-opacity:1;fill-rule:nonzero;stroke:none;stroke-width:.259353" transform="matrix(1.36022 0 0 1.36022 -10.122 -132.588)"/><g style="fill:#fc3b20;fill-opacity:1;stroke-width:.101892"><path d="M0 0c-7.712 0-9.262 6.74-9.262 17.614h1.741C-7.521 4.338-4.763 1.74 0 1.74c4.405 0 7.523 1.139 7.523 15.874v15.579h1.74V17.614C9.263 4.28 7.012 0 0 0" style="fill:#fc3b20;fill-opacity:1;fill-rule:nonzero;stroke:none;stroke-width:.101892" transform="matrix(3.46226 0 0 -3.46226 61.982 114.923)"/></g><g style="fill:#fc3b20;fill-opacity:1;stroke-width:.101892"><path d="M0 0c-7.715 0-9.265 6.74-9.265 17.614h1.74C-7.525 4.338-4.766 1.74 0 1.74c4.989 0 7.519 5.341 7.519 15.874v15.579h1.74V17.614C9.259 5.926 6.144 0 0 0" style="fill:#fc3b20;fill-opacity:1;fill-rule:nonzero;stroke:none;stroke-width:.101892" transform="matrix(3.46226 0 0 -3.46226 32.078 114.923)"/></g><g style="fill:#fc3b20;fill-opacity:1;stroke-width:.101892"><path d="m0 0 3.359.586V-.871c0-1.414.898-2.064 1.929-2.064 1.163 0 1.86.852 1.86 2.042v10.82h3.538V-.987c0-2.886-2.218-5.309-5.375-5.309C2.174-6.296 0-4.212 0-1.051Z" style="fill:#fc3b20;fill-opacity:1;fill-rule:nonzero;stroke:none;stroke-width:.101892" transform="matrix(3.46226 0 0 -3.46226 114.814 47.218)"/></g><g style="fill:#fc3b20;fill-opacity:1;stroke-width:.101892"><path d="M0 0v15.883h10.057v-3.337H3.539V9.519h5.912V6.402H3.539V3.359h6.541V0Z" style="fill:#fc3b20;fill-opacity:1;fill-rule:nonzero;stroke:none;stroke-width:.101892" transform="matrix(3.46226 0 0 -3.46226 161.747 67.84)"/></g><g style="fill:#fc3b20;fill-opacity:1;stroke-width:.101892"><path d="M0 0c2.195 0 4.57 1.481 4.57 4.796 0 3.313-2.375 4.815-4.57 4.815-2.217 0-4.592-1.502-4.592-4.815C-4.592 1.481-2.217 0 0 0m0 13.062c4.458 0 8.241-3.247 8.241-8.289C8.241-.244 4.458-3.496 0-3.496c-4.482 0-8.268 3.252-8.268 8.269 0 5.042 3.786 8.289 8.268 8.289" style="fill:#fc3b20;fill-opacity:1;fill-rule:nonzero;stroke:none;stroke-width:.101892" transform="matrix(3.46226 0 0 -3.46226 230.772 56.913)"/></g><g style="fill:#fc3b20;fill-opacity:1;stroke-width:.101892"><path d="m0 0-6.542 10.438V0h-3.516v15.883h4.301L.201 6.226v9.657h3.537V0Z" style="fill:#fc3b20;fill-opacity:1;fill-rule:nonzero;stroke:none;stroke-width:.101892" transform="matrix(3.46226 0 0 -3.46226 301.353 67.84)"/></g><g style="fill:#fc3b20;fill-opacity:1;stroke-width:.101892"><path d="m0 0 3.363.586V-.871c0-1.414.895-2.064 1.925-2.064 1.167 0 1.859.852 1.859 2.042v10.82h3.539V-.987c0-2.886-2.218-5.309-5.374-5.309C2.172-6.296 0-4.212 0-1.051Z" style="fill:#fc3b20;fill-opacity:1;fill-rule:nonzero;stroke:none;stroke-width:.101892" transform="matrix(3.46226 0 0 -3.46226 320.202 47.218)"/></g><g style="fill:#fc3b20;fill-opacity:1;stroke-width:.101892"><path d="M0 0v10.15h3.543V.29c0-1.924 1.07-2.889 2.754-2.889 1.678 0 2.756.965 2.756 2.889v9.86h3.536V0c0-3.988-2.798-6.092-6.292-6.092C2.801-6.092 0-3.988 0 0" style="fill:#fc3b20;fill-opacity:1;fill-rule:nonzero;stroke:none;stroke-width:.101892" transform="matrix(3.46226 0 0 -3.46226 366.66 47.992)"/></g></g></svg>