<svg width="40" height="40" viewBox="0 0 40 40" fill="none" xmlns="http://www.w3.org/2000/svg">
		<rect width="40" height="40" rx="20" fill="#FF0000"></rect>
		<path fill-rule="evenodd" clip-rule="evenodd" d="M20.6161 27.1161C20.128 27.6043 20.128 28.3957 20.6161 28.8839C21.1043 29.372 21.8957 29.372 22.3839 28.8839L29.8839 21.3839C30.372 20.8957 30.372 20.1043 29.8839 19.6161L29.8667 19.599L29.8496 19.5819L29.8325 19.5648L29.8155 19.5477L29.7475 19.4798L29.613 19.3452L29.5963 19.3285L29.5796 19.3119L29.5464 19.2786L29.4802 19.2125L29.4145 19.1467L29.3981 19.1303L29.3818 19.114L29.3655 19.0977L29.3492 19.0814L29.2843 19.0165L29.252 18.9842L29.2358 18.9681L29.2198 18.952L29.1876 18.9199L29.1556 18.8879L29.1397 18.8719L29.1237 18.856L29.0919 18.8242L28.9656 18.6979L28.95 18.6822L28.9343 18.6665L28.9187 18.6509L28.9031 18.6353L28.8719 18.6041L28.8564 18.5886L28.8408 18.5731L28.8098 18.5421L28.779 18.5112L28.7635 18.4958L28.7481 18.4804L28.7328 18.465L28.7174 18.4497L28.6868 18.419L28.6715 18.4037L28.6562 18.3885L28.6258 18.358L28.5954 18.3276L28.5348 18.2671L28.5198 18.252L28.5047 18.2369L28.4897 18.2219L28.4746 18.2069L28.4147 18.147L28.3849 18.1171L28.3551 18.0873L28.1196 17.8518L28.0614 17.7936L28.0034 17.7356L27.8882 17.6205L26.996 16.7282L26.7788 16.511L26.6708 16.403L26.6169 16.3491L26.6034 16.3357L26.59 16.3222L26.5631 16.2953L26.4556 16.1878L26.3482 16.0805L26.3214 16.0537L26.308 16.0403L26.2946 16.0269L26.241 15.9733L26.2142 15.9465L26.2008 15.9331L26.1875 15.9197L26.1339 15.8661L22.3839 12.1161C21.8957 11.628 21.1043 11.628 20.6161 12.1161C20.128 12.6043 20.128 13.3957 20.6161 13.8839L24.3661 17.6339L25.9822 19.25L10.873 19.25C10.1827 19.25 9.62305 19.8096 9.62305 20.5C9.62305 21.1904 10.1827 21.75 10.8731 21.75L25.9823 21.75L20.6161 27.1161Z" fill="white"></path>
	</svg>